<mxfile host="app.diagrams.net" modified="2023-05-24T18:51:23.675Z" agent="Mozilla/5.0 (Windows NT 10.0; Win64; x64) AppleWebKit/537.36 (KHTML, like Gecko) Chrome/113.0.0.0 Safari/537.36" etag="0bZiguNHrkENn9P6uMkP" version="21.3.3" type="device">
  <diagram id="UPBw0qmU_YTJ-TP_Ro3t" name="Page-1">
    <mxGraphModel dx="1434" dy="2188" grid="1" gridSize="10" guides="1" tooltips="1" connect="1" arrows="1" fold="1" page="1" pageScale="1" pageWidth="850" pageHeight="1400" math="0" shadow="0">
      <root>
        <mxCell id="0" />
        <mxCell id="1" parent="0" />
        <mxCell id="Ws1bPXrvKm7bFZ5hcrtx-8" style="edgeStyle=orthogonalEdgeStyle;rounded=0;orthogonalLoop=1;jettySize=auto;html=1;" parent="1" source="Ws1bPXrvKm7bFZ5hcrtx-1" target="Ws1bPXrvKm7bFZ5hcrtx-2" edge="1">
          <mxGeometry relative="1" as="geometry" />
        </mxCell>
        <mxCell id="Ws1bPXrvKm7bFZ5hcrtx-9" style="edgeStyle=orthogonalEdgeStyle;rounded=0;orthogonalLoop=1;jettySize=auto;html=1;entryX=0.034;entryY=0.431;entryDx=0;entryDy=0;entryPerimeter=0;" parent="1" source="Ws1bPXrvKm7bFZ5hcrtx-1" target="kYdflRZdK2H8khEXtB-D-12" edge="1">
          <mxGeometry relative="1" as="geometry">
            <mxPoint x="386.03999999999996" y="353.0100000000002" as="targetPoint" />
            <Array as="points">
              <mxPoint x="360" y="215" />
              <mxPoint x="360" y="349" />
            </Array>
          </mxGeometry>
        </mxCell>
        <mxCell id="kYdflRZdK2H8khEXtB-D-2" style="edgeStyle=orthogonalEdgeStyle;rounded=0;orthogonalLoop=1;jettySize=auto;html=1;entryX=0.005;entryY=0.889;entryDx=0;entryDy=0;entryPerimeter=0;" edge="1" parent="1" source="Ws1bPXrvKm7bFZ5hcrtx-1" target="Ws1bPXrvKm7bFZ5hcrtx-23">
          <mxGeometry relative="1" as="geometry">
            <Array as="points">
              <mxPoint x="110" y="550" />
              <mxPoint x="660" y="550" />
              <mxPoint x="660" y="555" />
            </Array>
          </mxGeometry>
        </mxCell>
        <mxCell id="Ws1bPXrvKm7bFZ5hcrtx-1" value="" style="whiteSpace=wrap;html=1;aspect=fixed;" parent="1" vertex="1">
          <mxGeometry x="50" y="140" width="150" height="150" as="geometry" />
        </mxCell>
        <mxCell id="Ws1bPXrvKm7bFZ5hcrtx-2" value="&lt;br&gt;Angular" style="whiteSpace=wrap;html=1;aspect=fixed;" parent="1" vertex="1">
          <mxGeometry x="140" y="-67.5" width="140" height="140" as="geometry" />
        </mxCell>
        <mxCell id="Ws1bPXrvKm7bFZ5hcrtx-7" style="edgeStyle=orthogonalEdgeStyle;rounded=0;orthogonalLoop=1;jettySize=auto;html=1;" parent="1" source="Ws1bPXrvKm7bFZ5hcrtx-5" target="kYdflRZdK2H8khEXtB-D-12" edge="1">
          <mxGeometry relative="1" as="geometry">
            <Array as="points">
              <mxPoint x="425" />
            </Array>
            <mxPoint x="425" y="310" as="targetPoint" />
          </mxGeometry>
        </mxCell>
        <mxCell id="kYdflRZdK2H8khEXtB-D-5" style="edgeStyle=orthogonalEdgeStyle;rounded=0;orthogonalLoop=1;jettySize=auto;html=1;exitX=-0.025;exitY=0.411;exitDx=0;exitDy=0;exitPerimeter=0;" edge="1" parent="1" source="Ws1bPXrvKm7bFZ5hcrtx-23" target="Ws1bPXrvKm7bFZ5hcrtx-5">
          <mxGeometry relative="1" as="geometry">
            <Array as="points">
              <mxPoint x="677" y="510" />
              <mxPoint x="510" y="510" />
            </Array>
          </mxGeometry>
        </mxCell>
        <mxCell id="Ws1bPXrvKm7bFZ5hcrtx-5" value="" style="ellipse;whiteSpace=wrap;html=1;" parent="1" vertex="1">
          <mxGeometry x="500" y="-67.5" width="170" height="140" as="geometry" />
        </mxCell>
        <mxCell id="Ws1bPXrvKm7bFZ5hcrtx-10" value="API&lt;br&gt;.NET 6.0" style="text;html=1;strokeColor=none;fillColor=none;align=center;verticalAlign=middle;whiteSpace=wrap;rounded=0;" parent="1" vertex="1">
          <mxGeometry x="90" y="195" width="60" height="30" as="geometry" />
        </mxCell>
        <mxCell id="Ws1bPXrvKm7bFZ5hcrtx-11" value="UI" style="text;html=1;strokeColor=none;fillColor=none;align=center;verticalAlign=middle;whiteSpace=wrap;rounded=0;" parent="1" vertex="1">
          <mxGeometry x="180" y="-30" width="60" height="30" as="geometry" />
        </mxCell>
        <mxCell id="Ws1bPXrvKm7bFZ5hcrtx-12" value="Notifications Worker" style="text;html=1;strokeColor=none;fillColor=none;align=center;verticalAlign=middle;whiteSpace=wrap;rounded=0;" parent="1" vertex="1">
          <mxGeometry x="542.5" y="-25" width="85" height="55" as="geometry" />
        </mxCell>
        <mxCell id="Ws1bPXrvKm7bFZ5hcrtx-13" value="SQL" style="text;html=1;strokeColor=none;fillColor=none;align=center;verticalAlign=middle;whiteSpace=wrap;rounded=0;" parent="1" vertex="1">
          <mxGeometry x="395" y="340" width="60" height="30" as="geometry" />
        </mxCell>
        <mxCell id="Ws1bPXrvKm7bFZ5hcrtx-18" style="edgeStyle=orthogonalEdgeStyle;rounded=0;orthogonalLoop=1;jettySize=auto;html=1;entryX=0.969;entryY=0.293;entryDx=0;entryDy=0;entryPerimeter=0;" parent="1" source="Ws1bPXrvKm7bFZ5hcrtx-15" target="kYdflRZdK2H8khEXtB-D-12" edge="1">
          <mxGeometry relative="1" as="geometry">
            <mxPoint x="465" y="345" as="targetPoint" />
          </mxGeometry>
        </mxCell>
        <mxCell id="Ws1bPXrvKm7bFZ5hcrtx-15" value="" style="html=1;verticalLabelPosition=bottom;align=center;labelBackgroundColor=#ffffff;verticalAlign=top;strokeWidth=2;strokeColor=#0080F0;shadow=0;dashed=0;shape=mxgraph.ios7.icons.storage;" parent="1" vertex="1">
          <mxGeometry x="660" y="320" width="150" height="120" as="geometry" />
        </mxCell>
        <mxCell id="Ws1bPXrvKm7bFZ5hcrtx-16" value="Blob Storage" style="text;html=1;strokeColor=none;fillColor=none;align=center;verticalAlign=middle;whiteSpace=wrap;rounded=0;" parent="1" vertex="1">
          <mxGeometry x="690" y="330" width="90" height="30" as="geometry" />
        </mxCell>
        <mxCell id="Ws1bPXrvKm7bFZ5hcrtx-17" value="Images" style="text;html=1;strokeColor=none;fillColor=none;align=center;verticalAlign=middle;whiteSpace=wrap;rounded=0;" parent="1" vertex="1">
          <mxGeometry x="705" y="410" width="60" height="30" as="geometry" />
        </mxCell>
        <mxCell id="Ws1bPXrvKm7bFZ5hcrtx-19" value="Blob Path" style="text;html=1;strokeColor=none;fillColor=none;align=center;verticalAlign=middle;whiteSpace=wrap;rounded=0;" parent="1" vertex="1">
          <mxGeometry x="560" y="350" width="60" height="40" as="geometry" />
        </mxCell>
        <mxCell id="Ws1bPXrvKm7bFZ5hcrtx-20" value="" style="rounded=0;whiteSpace=wrap;html=1;fillColor=none;dashed=1;" parent="1" vertex="1">
          <mxGeometry x="620" y="210" width="224.75" height="580" as="geometry" />
        </mxCell>
        <mxCell id="Ws1bPXrvKm7bFZ5hcrtx-21" value="Azure" style="text;html=1;strokeColor=none;fillColor=none;align=center;verticalAlign=middle;whiteSpace=wrap;rounded=0;" parent="1" vertex="1">
          <mxGeometry x="699.75" y="250" width="60" height="30" as="geometry" />
        </mxCell>
        <mxCell id="Ws1bPXrvKm7bFZ5hcrtx-23" value="" style="aspect=fixed;html=1;points=[];align=center;image;fontSize=12;image=img/lib/azure2/analytics/Event_Hubs.svg;fillColor=none;" parent="1" vertex="1">
          <mxGeometry x="679.5" y="475" width="100.5" height="90" as="geometry" />
        </mxCell>
        <mxCell id="Ws1bPXrvKm7bFZ5hcrtx-25" value="EventHubs notifications" style="text;html=1;strokeColor=none;fillColor=none;align=center;verticalAlign=middle;whiteSpace=wrap;rounded=0;" parent="1" vertex="1">
          <mxGeometry x="635" y="570" width="200" height="30" as="geometry" />
        </mxCell>
        <mxCell id="kYdflRZdK2H8khEXtB-D-1" value="Producer notifications" style="text;html=1;strokeColor=none;fillColor=none;align=center;verticalAlign=middle;whiteSpace=wrap;rounded=0;" vertex="1" parent="1">
          <mxGeometry x="150" y="520" width="90" height="30" as="geometry" />
        </mxCell>
        <mxCell id="kYdflRZdK2H8khEXtB-D-6" value="Consumer notifications" style="text;html=1;strokeColor=none;fillColor=none;align=center;verticalAlign=middle;whiteSpace=wrap;rounded=0;" vertex="1" parent="1">
          <mxGeometry x="500" y="110" width="90" height="30" as="geometry" />
        </mxCell>
        <mxCell id="kYdflRZdK2H8khEXtB-D-7" value="Update notification status" style="text;html=1;strokeColor=none;fillColor=none;align=center;verticalAlign=middle;whiteSpace=wrap;rounded=0;" vertex="1" parent="1">
          <mxGeometry x="365" y="140" width="55" height="30" as="geometry" />
        </mxCell>
        <mxCell id="kYdflRZdK2H8khEXtB-D-9" value="Entity Framework" style="text;html=1;strokeColor=none;fillColor=none;align=center;verticalAlign=middle;whiteSpace=wrap;rounded=0;" vertex="1" parent="1">
          <mxGeometry x="240" y="220" width="60" height="30" as="geometry" />
        </mxCell>
        <mxCell id="kYdflRZdK2H8khEXtB-D-10" value="" style="image;sketch=0;aspect=fixed;html=1;points=[];align=center;fontSize=12;image=img/lib/mscae/App_Configuration.svg;" vertex="1" parent="1">
          <mxGeometry x="690" y="630" width="61.22" height="60" as="geometry" />
        </mxCell>
        <mxCell id="kYdflRZdK2H8khEXtB-D-11" value="App Configuration" style="text;html=1;strokeColor=none;fillColor=none;align=center;verticalAlign=middle;whiteSpace=wrap;rounded=0;" vertex="1" parent="1">
          <mxGeometry x="691.22" y="700" width="60" height="30" as="geometry" />
        </mxCell>
        <mxCell id="kYdflRZdK2H8khEXtB-D-12" value="" style="image;aspect=fixed;html=1;points=[];align=center;fontSize=12;image=img/lib/azure2/databases/SQL_Database.svg;" vertex="1" parent="1">
          <mxGeometry x="400" y="311.5" width="65.25" height="87" as="geometry" />
        </mxCell>
      </root>
    </mxGraphModel>
  </diagram>
</mxfile>
